<?xml version="1.0" encoding="UTF-8"?><svg id="a" xmlns="http://www.w3.org/2000/svg" viewBox="0 0 14.04 15.48"><defs><style>.b{fill:#fff;}.c{fill:#039b50;}.d{fill:#fec909;}.e{fill:#8c4b47;}</style></defs><polygon class="d" points="4.16 15.48 4.33 13.07 3.3 12.77 1.31 12.19 1.23 10.67 1.05 7.47 2.18 7.47 2.92 10.99 4.46 11.27 6.56 11.65 6.63 13.75 6.69 15.48 4.16 15.48"/><g><polygon class="d" points="9.85 14.33 7.43 14.33 7.44 14.08 9.83 14.08 9.85 14.33"/><polygon class="d" points="9.93 15.48 7.39 15.48 7.42 14.75 9.88 14.75 9.93 15.48"/><polygon class="d" points="13.04 7.47 12.86 10.67 12.77 12.19 10.78 12.77 9.76 13.07 9.8 13.66 7.46 13.66 7.52 11.65 9.63 11.27 11.16 10.99 11.91 7.47 13.04 7.47"/></g><ellipse class="e" cx="7.04" cy="8.75" rx="3.41" ry="2.3"/><path class="b" d="M6.97,10.95c-.08,0-.15-.06-.18-.11-.04-.06-.06-.12-.09-.18,0-.02-.02-.04-.03-.06-.02-.05-.03-.09-.05-.14-.01-.03-.02-.07-.03-.1-.05-.12-.13-.21-.23-.31-.03-.03-.07-.07-.11-.1-.07-.07-.14-.14-.21-.22-.1-.12-.17-.28-.17-.46,0-.12,.03-.23,.05-.34,0-.04,.02-.07,.03-.1,.02-.11,.04-.22,.04-.33,0-.07,0-.15,0-.22,0-.02,0-.03,0-.05h0s-.07,0-.1,.02c-.1,.03-.23,.06-.37,.06-.07,0-.13,0-.2-.02-.17-.04-.32-.15-.43-.3-.1-.13-.16-.3-.18-.48v-.11h.1c.09-.02,.2-.02,.31-.02,.17,0,.3,.02,.42,.06,.14,.05,.27,.13,.41,.25h0s-.02-.1-.02-.16c-.07-.77,.43-.91,.45-.92l.07-.02,.05,.05c.18,.22,.25,.47,.18,.69-.02,.05-.04,.11-.07,.16,.15-.07,.33-.11,.5-.11,.07,0,.14,0,.21,.02,.08,.02,.15,.04,.2,.07,.03,.02,.06,.04,.09,.06,.05,.04,.14,.11,.08,.2l-.02,.03c-.08,.13-.17,.27-.33,.36-.03,.01-.05,.03-.08,.04,.24-.05,.45-.07,.66-.07,.03,0,.06,0,.09,0,.16,0,.33,.04,.49,.09,.2,.06,.38,.16,.55,.28,.24,.17,.32,.38,.22,.57-.03,.07-.12,.14-.21,.2,.03,0,.05,.01,.08,.02,.11,.03,.15,.1,.16,.13,.03,.11-.07,.22-.1,.25-.05,.05-.12,.1-.19,.15-.26,.16-.57,.24-.89,.24-.3,0-.6-.07-.87-.2-.32-.16-.57-.33-.75-.51l-.02-.02s-.02-.02-.03-.03h0c-.06,.21,.05,.33,.17,.43l.02,.02s.03,.02,.05,.03h.02s.07,.06,.11,.08c.06,.04,.12,.07,.18,.11,.05,.03,.1,.07,.15,.1,.05,.04,.12,.09,.17,.17,.04,.07,.05,.15,.07,.22,.02,.09,.03,.19,.04,.29,0,.01,0,.05-.02,.09-.02,.04-.07,.07-.12,.07-.02,0-.04,0-.06-.01-.04-.02-.06-.05-.07-.06l-.04-.06s0,.06,0,.08c-.02,.12-.09,.16-.16,.16Zm-.53-2.81c0,.07,0,.13,0,.18v.02s0,.04,0,.06h.03c.1-.03,.2-.06,.3-.1,.08-.03,.16-.05,.24-.08h-.04s-.03,0-.05,0c-.15,0-.34-.05-.47-.09Z"/><path class="c" d="M6.27,7.72s.05-.05,.07-.06c.11-.09,.21-.21,.25-.35,.06-.22-.02-.43-.16-.59,0,0-.44,.12-.37,.8,0,.09,.03,.19,.05,.28,.01,.05,.02,.09,.03,.14,0,.02,.01,.05,.02,.07,0,.01,.02,.04,.01,.05,0,0,0,0-.01,0-.08-.1-.17-.2-.27-.28-.11-.1-.24-.18-.38-.23-.22-.07-.46-.06-.69-.04,.02,.15,.07,.3,.16,.42s.22,.22,.37,.26c.17,.04,.34,.01,.51-.03,.08-.02,.16-.05,.23-.09,0,.04,0,.07,0,.1,0,.04,0,.08,.01,.12,0,.08,0,.16,0,.24,0,.12-.02,.23-.05,.35-.03,.14-.08,.27-.08,.42,0,.14,.05,.28,.14,.39,.1,.11,.21,.21,.31,.32s.2,.21,.25,.34c.03,.08,.04,.16,.08,.23s.06,.15,.1,.22c.03,.06,.12,.11,.14,0s-.02-.43-.02-.43c.09,.12,.17,.24,.26,.36,0,.01,.02,.02,.03,.03s.03,0,.04,0c0,0,0-.02,0-.02,0-.1-.02-.19-.04-.28-.01-.06-.02-.13-.05-.19-.03-.06-.08-.09-.13-.13-.05-.03-.09-.07-.14-.1-.09-.06-.19-.12-.29-.18-.03-.02-.05-.03-.08-.05-.06-.05-.33-.22-.23-.54,0-.03,.03-.07,.05-.09,0,0,.02-.03,.03-.03,.07,0,.11,.07,.16,.11,.2,.2,.47,.36,.72,.49,.52,.25,1.15,.27,1.65-.03,.06-.04,.12-.08,.17-.13,0,0,.17-.16,0-.2s-.4-.06-.4-.06c0,0,.39-.17,.46-.31,.09-.17-.06-.33-.19-.43-.16-.12-.33-.21-.52-.27-.15-.05-.31-.08-.46-.08-.31-.01-.62,.04-.92,.11h0c-.21,.05-.41,.14-.62,.19-.02,0-.05,.01-.07,.02-.02,0-.04,.01-.06,0-.05-.03-.03-.15-.03-.2,0-.11,0-.22,0-.33,0,0,.41,.15,.63,.13,.12-.01,.25-.03,.36-.1,.13-.07,.21-.19,.29-.32l.02-.03s-.05-.05-.06-.06c-.02-.02-.05-.03-.07-.05-.05-.03-.11-.05-.17-.06-.27-.05-.57,.01-.79,.17-.03,.02-.06,.05-.09,.08-.02,.02-.04,.05-.08,.04-.03,0-.06-.03-.07-.05,0,0,0-.02,0-.02Z"/><g><path d="M.67,7.43l.33-.35,.1,.1-.46,.49-.11-.1-.14-.77-.3,.32-.1-.1,.44-.46,.1,.09,.14,.78Z"/><path d="M.66,6.32l.66,.63-.11,.12-.66-.63,.11-.12Z"/><path d="M.98,5.99l.13-.14,.89,.39-.12,.12-.21-.1-.25,.27,.11,.21-.12,.12-.44-.87Zm.56,.22l-.38-.17,.19,.37,.19-.19Z"/><path d="M2.34,5.92c-.16,.16-.35,.17-.5,.02l-.43-.41,.11-.12,.43,.41c.1,.09,.2,.09,.29,0,.09-.09,.09-.2,0-.29l-.43-.41,.11-.12,.43,.41c.15,.15,.15,.34,0,.51Z"/><path d="M2.73,4.55c.08,.08,.09,.18,.05,.27,.07-.06,.14-.06,.22,0l.21,.17-.11,.12-.19-.15c-.06-.05-.11-.03-.2,.05l-.13,.14,.25,.24-.11,.12-.66-.63,.26-.28c.13-.14,.3-.16,.42-.04Zm-.13,.35c.08-.08,.08-.16,.02-.22-.07-.06-.14-.05-.22,.03l-.14,.15,.2,.19,.14-.15Z"/><path d="M3.56,3.68c.08,.08,.09,.18,.05,.27,.07-.06,.14-.06,.22,0l.21,.17-.11,.12-.19-.15c-.06-.05-.11-.03-.2,.05l-.13,.14,.25,.24-.11,.12-.66-.63,.26-.28c.13-.14,.3-.16,.42-.04Zm-.13,.35c.08-.08,.08-.16,.02-.22-.07-.06-.14-.05-.22,.03l-.14,.15,.2,.19,.14-.15Z"/><path d="M3.66,3.17l.13-.14,.89,.39-.12,.12-.21-.1-.25,.27,.11,.21-.12,.12-.44-.87Zm.56,.22l-.38-.17,.19,.37,.19-.19Z"/><path d="M4.11,2.69l.11-.12,.28,.27,.27-.28-.28-.27,.11-.12,.66,.63-.11,.12-.28-.27-.27,.28,.28,.27-.11,.12-.66-.63Z"/><path d="M4.9,1.87l.7,.31-.34-.68,.15-.16,.66,.63-.11,.12-.46-.44,.3,.6-.11,.12-.62-.27,.46,.44-.11,.12-.66-.63,.15-.16Z"/><path d="M5.72,1.01l.13-.14,.89,.39-.12,.12-.21-.1-.25,.27,.11,.21-.12,.12-.44-.87Zm.56,.22l-.38-.17,.19,.37,.19-.19Z"/><path d="M6.3,.4l.78,.19-.5-.48,.11-.12,.66,.63-.14,.15-.76-.18,.49,.47-.11,.12-.66-.63,.13-.14Z"/></g><g><path d="M8.04,1.25l-.11,.11-.36-.33-.19,.2,.34,.31-.1,.11-.34-.31-.28,.3-.13-.12,.68-.73,.49,.45Z"/><path d="M7.79,1.7c.22-.24,.49-.26,.7-.06,.21,.2,.21,.47-.01,.7-.22,.23-.49,.26-.7,.06-.21-.2-.21-.47,0-.7Zm.1,.59c.14,.13,.3,.1,.46-.07,.16-.17,.18-.34,.04-.46-.13-.13-.3-.1-.46,.07-.16,.17-.17,.34-.04,.46Z"/><path d="M8.53,3.09c-.18-.17-.19-.38-.03-.55l.44-.47,.13,.12-.44,.47c-.1,.11-.09,.22,0,.31,.1,.1,.22,.09,.31-.01l.44-.47,.13,.12-.44,.47c-.16,.17-.37,.17-.55,0Z"/><path d="M9.82,2.9l-.2,.84,.51-.55,.13,.12-.68,.73-.16-.15,.19-.82-.5,.54-.13-.12,.68-.73,.15,.14Z"/><path d="M10.69,4.38c-.22,.23-.47,.25-.69,.03l-.25-.23,.68-.73,.24,.22c.23,.22,.24,.47,.02,.7Zm-.59-.09c.15,.14,.31,.13,.46-.04,.16-.17,.16-.32,0-.47l-.11-.1-.47,.5,.11,.1Z"/><path d="M11.33,4.3l.15,.14-.41,.98-.13-.12,.1-.23-.29-.27-.22,.12-.13-.12,.94-.49Zm-.23,.61l.18-.41-.4,.21,.21,.2Z"/><path d="M12.17,5.29l-.22-.21-.57,.62-.13-.12,.57-.62-.22-.21,.11-.11,.57,.53-.11,.11Z"/><path d="M12.52,5.4l-.68,.73-.13-.12,.68-.73,.13,.12Z"/><path d="M12.29,5.88c.22-.24,.49-.26,.7-.06,.21,.2,.21,.47-.01,.7-.22,.23-.49,.26-.7,.06-.21-.2-.21-.47,0-.7Zm.1,.59c.14,.13,.3,.1,.46-.07,.16-.17,.18-.34,.04-.46-.13-.13-.3-.1-.46,.07-.16,.17-.17,.34-.04,.46Z"/><path d="M13.59,6.4l-.2,.84,.51-.55,.13,.12-.68,.73-.16-.15,.19-.82-.5,.54-.13-.12,.68-.73,.15,.14Z"/></g></svg>