<?xml version="1.0" encoding="UTF-8"?><svg id="a" xmlns="http://www.w3.org/2000/svg" viewBox="0 0 42.39 46.76"><defs><style>.b{fill:#fff;}.c{fill:#039b50;}.d{fill:#fec909;}.e{fill:#8c4b47;}</style></defs><polygon class="d" points="12.55 46.76 13.07 39.48 9.98 38.57 3.97 36.81 3.71 32.23 3.16 22.55 6.58 22.55 8.83 33.17 13.46 34.02 19.82 35.19 20.04 41.53 20.21 46.76 12.55 46.76"/><g><polygon class="d" points="29.74 43.29 22.45 43.29 22.47 42.52 29.69 42.52 29.74 43.29"/><polygon class="d" points="29.99 46.76 22.33 46.76 22.4 44.55 29.83 44.55 29.99 46.76"/><polygon class="d" points="39.38 22.55 38.83 32.23 38.57 36.81 32.57 38.57 29.47 39.48 29.6 41.25 22.51 41.25 22.72 35.19 29.09 34.02 33.71 33.17 35.96 22.55 39.38 22.55"/></g><ellipse class="e" cx="21.25" cy="26.42" rx="10.3" ry="6.94"/><path class="b" d="M21.03,33.07c-.25,0-.45-.18-.55-.34-.11-.18-.19-.36-.26-.53-.03-.06-.05-.12-.08-.19-.06-.14-.1-.28-.14-.42-.03-.1-.06-.2-.1-.29-.14-.36-.41-.65-.69-.93-.1-.11-.21-.21-.32-.31-.21-.21-.43-.42-.64-.65-.31-.35-.5-.86-.52-1.39-.01-.37,.08-.71,.16-1.03,.03-.11,.05-.21,.08-.31,.07-.32,.12-.66,.13-1,.01-.22,0-.45,0-.67,0-.05,0-.09-.01-.14v-.04c-.11,.04-.21,.06-.31,.09-.3,.08-.7,.17-1.11,.17-.21,0-.41-.02-.59-.07-.51-.13-.97-.45-1.3-.9-.3-.4-.48-.9-.54-1.44l-.04-.34,.34-.03c.27-.02,.61-.05,.93-.05,.5,0,.9,.06,1.27,.18,.42,.14,.83,.38,1.25,.74h.02c-.03-.15-.06-.31-.07-.47-.22-2.32,1.29-2.76,1.36-2.78l.21-.06,.14,.17c.55,.67,.75,1.42,.55,2.1-.05,.16-.12,.32-.21,.48,.47-.21,.99-.33,1.5-.33,.21,0,.42,.02,.62,.06,.24,.05,.44,.12,.62,.21,.1,.05,.19,.12,.28,.18,.15,.13,.41,.34,.25,.61-.02,.03-.03,.06-.05,.09-.23,.38-.52,.81-.99,1.07-.08,.05-.16,.08-.24,.12,.72-.14,1.37-.22,2-.22,.09,0,.18,0,.27,0,.49,.02,.99,.11,1.49,.27,.59,.19,1.15,.48,1.67,.85,.71,.52,.96,1.14,.68,1.71-.1,.21-.35,.41-.63,.59,.08,.02,.16,.03,.24,.05,.34,.08,.44,.29,.47,.41,.09,.34-.21,.66-.32,.75-.16,.16-.35,.31-.58,.45-.79,.47-1.72,.72-2.68,.72-.89,0-1.8-.21-2.63-.61-.96-.47-1.72-.99-2.26-1.54-.02-.02-.04-.04-.06-.07-.02-.02-.05-.06-.09-.09,0,.02-.01,.03-.02,.04-.17,.6,.15,.95,.53,1.24,.03,.02,.05,.04,.07,.05,.04,.03,.1,.07,.15,.1l.05,.03c.11,.07,.22,.14,.33,.21,.18,.11,.36,.22,.54,.34,.16,.1,.3,.2,.44,.3,.15,.11,.36,.26,.5,.51,.12,.22,.16,.47,.2,.66,.05,.27,.1,.58,.12,.89,0,.04,.01,.15-.05,.27-.07,.12-.2,.2-.35,.2-.06,0-.13-.01-.19-.04-.11-.05-.18-.14-.21-.19-.04-.06-.09-.12-.13-.18,0,.09,0,.17-.01,.23-.05,.35-.29,.48-.48,.48Zm-1.6-8.49c0,.2,0,.38-.01,.54v.05s0,.12,0,.19l.09-.02c.3-.08,.59-.17,.9-.27,.24-.08,.49-.16,.74-.23-.04,0-.08,0-.12,.01-.05,0-.1,0-.16,0-.44,0-1.02-.15-1.42-.27Z"/><path class="c" d="M18.94,23.3c.03-.08,.15-.15,.2-.19,.34-.27,.63-.64,.75-1.06,.19-.65-.07-1.29-.49-1.8,0,0-1.31,.36-1.11,2.43,.03,.27,.09,.56,.15,.83,.03,.14,.07,.28,.11,.42,.02,.07,.04,.14,.06,.2,.01,.04,.06,.12,.03,.17-.01,0-.02-.02-.03-.03-.24-.31-.51-.59-.81-.84-.34-.29-.72-.54-1.14-.68-.66-.22-1.38-.17-2.08-.12,.05,.46,.21,.91,.48,1.28s.67,.66,1.12,.77c.5,.13,1.03,.03,1.54-.1,.24-.06,.48-.14,.69-.27-.01,.11,.01,.2,.02,.31,0,.12,.02,.24,.03,.35,.01,.24,.02,.47,0,.71-.02,.36-.06,.71-.14,1.06-.09,.42-.24,.82-.23,1.26,.01,.42,.15,.86,.43,1.18,.3,.34,.63,.64,.94,.95s.59,.63,.76,1.04c.09,.23,.14,.48,.23,.7s.18,.46,.32,.68c.1,.17,.37,.32,.42,0s-.06-1.3-.06-1.3c.27,.36,.53,.73,.79,1.09,.02,.03,.05,.07,.09,.09s.09,.01,.11-.02c.01-.02,.01-.05,0-.07-.02-.29-.07-.57-.12-.86-.03-.19-.07-.39-.16-.56-.1-.18-.24-.29-.4-.4-.14-.1-.29-.2-.43-.29-.29-.18-.58-.36-.86-.54-.08-.05-.17-.1-.24-.16-.19-.16-.99-.67-.7-1.64,.03-.1,.09-.2,.15-.28,.02-.03,.06-.08,.1-.08,.2,0,.35,.2,.48,.33,.6,.61,1.41,1.1,2.17,1.47,1.56,.76,3.47,.82,4.99-.09,.19-.11,.36-.24,.52-.4,0,0,.52-.47,0-.6s-1.22-.19-1.22-.19c0,0,1.18-.53,1.38-.93,.26-.52-.18-1.01-.58-1.3-.48-.35-1.01-.62-1.57-.81-.45-.15-.92-.23-1.4-.25-.94-.03-1.87,.11-2.77,.34h-.02c-.63,.16-1.24,.41-1.87,.57-.07,.02-.14,.04-.21,.05-.06,.01-.13,.04-.18,0-.14-.1-.11-.46-.1-.61,.02-.33,.02-.66,0-.99,0,0,1.25,.46,1.9,.4,.37-.04,.75-.1,1.08-.29,.39-.22,.64-.59,.87-.96,.02-.03,.03-.06,.05-.08,.01-.02-.15-.16-.17-.18-.07-.06-.14-.11-.22-.15-.17-.09-.34-.14-.53-.18-.8-.16-1.71,.04-2.38,.51-.1,.07-.2,.15-.28,.23-.07,.07-.12,.14-.23,.11-.08-.02-.19-.09-.23-.16-.01-.02-.01-.05,0-.07Z"/><g><path d="M2.03,22.43l1.01-1.06,.31,.3-1.4,1.47-.32-.3-.41-2.32-.91,.96-.31-.3,1.33-1.39,.3,.28,.41,2.37Z"/><path d="M1.98,19.09l2.01,1.91-.34,.36-2.01-1.91,.34-.36Z"/><path d="M2.95,18.08l.4-.42,2.7,1.19-.35,.37-.65-.3-.77,.8,.33,.63-.35,.37-1.32-2.64Zm1.7,.65l-1.14-.53,.58,1.11,.56-.59Z"/><path d="M7.07,17.87c-.47,.49-1.05,.52-1.52,.07l-1.3-1.23,.34-.36,1.3,1.23c.29,.27,.6,.26,.87-.02,.27-.28,.26-.59-.02-.87l-1.3-1.23,.34-.36,1.3,1.23c.47,.44,.47,1.03,0,1.53Z"/><path d="M8.24,13.73c.25,.23,.27,.56,.14,.81,.23-.18,.42-.18,.65,0l.63,.5-.34,.36-.57-.46c-.19-.15-.35-.1-.59,.16l-.4,.42,.76,.73-.34,.36-2.01-1.91,.79-.83c.4-.42,.9-.49,1.28-.13Zm-.38,1.05c.23-.24,.25-.48,.05-.67-.2-.19-.44-.16-.67,.08l-.42,.44,.62,.59,.42-.44Z"/><path d="M10.74,11.12c.25,.23,.27,.56,.14,.81,.23-.18,.42-.18,.65,0l.63,.5-.34,.36-.57-.46c-.19-.15-.35-.1-.59,.16l-.4,.42,.76,.73-.34,.36-2.01-1.91,.79-.83c.4-.42,.9-.49,1.28-.13Zm-.38,1.05c.23-.24,.25-.48,.05-.67-.2-.19-.44-.16-.67,.08l-.42,.44,.62,.59,.42-.44Z"/><path d="M11.05,9.58l.4-.42,2.7,1.19-.35,.37-.65-.3-.77,.8,.33,.63-.35,.37-1.32-2.64Zm1.7,.65l-1.14-.53,.58,1.11,.56-.59Z"/><path d="M12.43,8.14l.34-.36,.84,.8,.8-.84-.84-.8,.34-.36,2.01,1.91-.34,.36-.85-.81-.8,.84,.85,.81-.34,.36-2.01-1.91Z"/><path d="M14.8,5.64l2.11,.94-1.04-2.06,.46-.48,2.01,1.91-.34,.36-1.39-1.32,.9,1.83-.34,.36-1.87-.81,1.39,1.32-.34,.36-2.01-1.91,.46-.48Z"/><path d="M17.28,3.04l.4-.42,2.7,1.19-.35,.37-.65-.3-.77,.8,.33,.63-.35,.37-1.32-2.64Zm1.7,.65l-1.14-.53,.58,1.11,.56-.59Z"/><path d="M19.01,1.22l2.34,.58-1.52-1.44,.34-.36,2.01,1.91-.42,.44-2.28-.56,1.48,1.41-.34,.36-2.01-1.91,.4-.42Z"/></g><g><path d="M24.28,3.77l-.32,.35-1.08-1-.57,.61,1.02,.95-.31,.34-1.02-.95-.84,.91-.39-.36,2.05-2.21,1.47,1.36Z"/><path d="M23.53,5.13c.66-.71,1.47-.78,2.11-.19,.64,.59,.63,1.41-.03,2.12-.65,.71-1.46,.78-2.11,.19-.64-.59-.63-1.41,.03-2.11Zm.29,1.77c.41,.38,.9,.3,1.38-.22,.48-.52,.53-1.02,.12-1.4-.41-.38-.91-.3-1.39,.22-.48,.52-.52,1.02-.11,1.39Z"/><path d="M25.76,9.34c-.54-.5-.58-1.14-.1-1.65l1.32-1.42,.39,.36-1.32,1.42c-.29,.32-.28,.66,.03,.94,.31,.29,.65,.28,.94-.04l1.32-1.42,.39,.36-1.32,1.42c-.48,.51-1.11,.52-1.66,.02Z"/><path d="M29.66,8.76l-.59,2.55,1.55-1.67,.39,.36-2.05,2.21-.48-.45,.57-2.49-1.51,1.62-.39-.36,2.05-2.21,.46,.43Z"/><path d="M32.27,13.23c-.65,.71-1.41,.74-2.1,.1l-.75-.69,2.05-2.21,.73,.67c.7,.65,.73,1.41,.07,2.12Zm-1.8-.26c.47,.43,.92,.39,1.39-.11,.48-.52,.48-.97,.01-1.4l-.34-.31-1.41,1.52,.34,.31Z"/><path d="M34.22,12.98l.47,.43-1.25,2.95-.4-.37,.31-.7-.88-.82-.68,.36-.4-.37,2.84-1.47Zm-.68,1.85l.55-1.25-1.2,.65,.65,.6Z"/><path d="M36.75,15.97l-.67-.62-1.73,1.86-.39-.36,1.73-1.86-.67-.62,.32-.35,1.73,1.61-.32,.35Z"/><path d="M37.8,16.31l-2.05,2.21-.39-.36,2.05-2.21,.39,.36Z"/><path d="M37.13,17.74c.66-.71,1.47-.78,2.11-.19,.64,.59,.63,1.41-.03,2.12-.65,.71-1.46,.78-2.11,.19-.64-.59-.63-1.41,.03-2.11Zm.29,1.77c.41,.38,.9,.3,1.38-.22,.48-.52,.53-1.02,.12-1.4-.41-.38-.91-.3-1.39,.22-.48,.52-.52,1.02-.11,1.39Z"/><path d="M41.05,19.32l-.59,2.55,1.55-1.67,.39,.36-2.05,2.21-.48-.45,.57-2.49-1.51,1.62-.39-.36,2.05-2.21,.46,.43Z"/></g></svg>