<?xml version="1.0" encoding="UTF-8"?><svg id="a" xmlns="http://www.w3.org/2000/svg" viewBox="0 0 443.78 489.51"><defs><style>.b{fill:#fff;}.c{fill:#039b50;}.d{fill:#fec909;}.e{fill:#8c4b47;}</style></defs><polygon class="d" points="131.4 489.51 136.8 413.3 104.44 403.79 41.55 385.31 38.83 337.44 33.08 236.1 68.87 236.1 92.45 347.27 140.87 356.14 207.54 368.36 209.75 434.73 211.59 489.51 131.4 489.51"/><g><polygon class="d" points="311.38 453.17 234.98 453.17 235.26 445.1 310.81 445.1 311.38 453.17"/><polygon class="d" points="313.96 489.51 233.77 489.51 234.54 466.43 312.32 466.43 313.96 489.51"/><polygon class="d" points="412.27 236.1 406.53 337.44 403.81 385.31 340.92 403.79 308.55 413.3 309.87 431.84 235.71 431.84 237.82 368.36 304.49 356.14 352.9 347.27 376.49 236.1 412.27 236.1"/></g><ellipse class="e" cx="222.48" cy="276.57" rx="107.81" ry="72.7"/><path class="b" d="M220.2,346.25c-2.6,0-4.73-1.93-5.76-3.59-1.16-1.86-1.95-3.75-2.7-5.57-.27-.65-.54-1.3-.83-1.95-.65-1.47-1.09-2.94-1.5-4.36-.32-1.09-.62-2.12-1-3.06-1.51-3.79-4.26-6.76-7.18-9.72-1.09-1.1-2.23-2.22-3.33-3.29-2.22-2.17-4.53-4.41-6.66-6.83-3.27-3.71-5.24-8.99-5.4-14.51-.11-3.87,.81-7.4,1.7-10.82,.29-1.11,.56-2.15,.8-3.21,.76-3.37,1.23-6.89,1.4-10.47,.11-2.35,.1-4.72-.05-7.06-.03-.48-.08-.98-.14-1.51-.01-.13-.03-.26-.04-.38-1.1,.37-2.18,.67-3.2,.94-3.14,.84-7.31,1.8-11.63,1.8-2.18,0-4.26-.25-6.2-.74-5.31-1.35-10.15-4.68-13.62-9.38-3.1-4.2-5.06-9.42-5.68-15.09l-.39-3.57,3.58-.27c2.84-.22,6.37-.49,9.79-.49,5.22,0,9.46,.61,13.32,1.92,4.39,1.49,8.67,4.02,13.09,7.76,.06,.05,.12,.1,.18,.16-.34-1.68-.62-3.38-.78-5.08-2.34-24.31,13.54-28.93,14.22-29.11l2.17-.59,1.43,1.74c5.78,7.03,7.82,14.83,5.76,21.97-.49,1.71-1.22,3.39-2.16,5,4.87-2.22,10.34-3.45,15.68-3.45,2.23,0,4.43,.21,6.54,.63,2.48,.49,4.6,1.22,6.47,2.22,1.06,.57,2.03,1.21,2.89,1.92,1.6,1.32,4.28,3.52,2.61,6.34-.18,.3-.36,.61-.55,.92-2.44,3.98-5.46,8.45-10.36,11.24-.83,.47-1.68,.88-2.54,1.23,7.49-1.52,14.37-2.26,20.89-2.26,.96,0,1.92,.02,2.87,.05,5.12,.18,10.35,1.11,15.55,2.79,6.19,2,12.06,5,17.44,8.93,7.45,5.44,10.03,11.98,7.09,17.95-1.06,2.16-3.68,4.34-6.55,6.22,.86,.17,1.7,.35,2.52,.55,3.54,.86,4.6,3.03,4.91,4.25,.91,3.58-2.2,6.86-3.31,7.88-1.71,1.73-3.69,3.26-6.06,4.68-8.25,4.94-17.96,7.55-28.08,7.55-9.37,0-18.87-2.22-27.49-6.43-10.06-4.91-18.04-10.31-23.7-16.07-.22-.22-.45-.46-.68-.71-.23-.24-.57-.61-.91-.94-.07,.16-.13,.31-.17,.44-1.83,6.28,1.57,9.97,5.52,13.02,.27,.21,.5,.39,.69,.54,.44,.36,1.01,.71,1.61,1.09,.18,.11,.36,.22,.54,.34,1.15,.72,2.3,1.44,3.46,2.15,1.85,1.14,3.76,2.33,5.63,3.53,1.67,1.08,3.19,2.11,4.65,3.14,1.6,1.14,3.8,2.7,5.24,5.38,1.26,2.35,1.7,4.88,2.06,6.9,.49,2.8,1.03,6.07,1.28,9.32,.03,.45,.12,1.62-.57,2.8-.76,1.3-2.14,2.07-3.7,2.07-.67,0-1.35-.15-1.95-.44-1.19-.57-1.87-1.49-2.23-1.98-.45-.61-.9-1.23-1.35-1.84,0,.95-.05,1.78-.13,2.43-.48,3.68-2.99,4.98-4.99,4.98Zm-16.8-88.84c0,2.07-.06,4.01-.14,5.67l-.03,.49c-.02,.39-.07,1.23-.05,2.01,.32-.08,.64-.16,.95-.24,3.14-.8,6.18-1.81,9.4-2.87,2.51-.83,5.09-1.68,7.72-2.43-.44,.05-.88,.1-1.3,.14-.53,.05-1.1,.08-1.69,.08-4.6,0-10.67-1.56-14.87-2.84Z"/><path class="c" d="M198.26,243.95c.32-.84,1.62-1.57,2.15-1.99,3.52-2.8,6.55-6.69,7.81-11.05,1.97-6.81-.77-13.52-5.11-18.79,0,0-13.75,3.75-11.67,25.42,.28,2.88,.96,5.88,1.6,8.73,.33,1.49,.7,2.97,1.1,4.44,.2,.71,.4,1.43,.62,2.13,.14,.46,.61,1.29,.36,1.73-.15-.05-.23-.16-.33-.29-2.5-3.23-5.34-6.19-8.45-8.83-3.56-3.02-7.53-5.63-11.95-7.12-6.92-2.34-14.45-1.81-21.73-1.26,.52,4.8,2.15,9.52,5.02,13.4s7,6.89,11.67,8.08c5.26,1.34,10.83,.35,16.08-1.05,2.51-.67,5.04-1.45,7.23-2.86-.15,1.12,.14,2.14,.19,3.25,.05,1.23,.25,2.47,.33,3.71,.15,2.48,.17,4.96,.05,7.44-.18,3.73-.66,7.42-1.48,11.07-.99,4.36-2.55,8.63-2.42,13.16,.13,4.36,1.62,9.01,4.53,12.31,3.1,3.51,6.58,6.65,9.86,9.98s6.21,6.56,7.93,10.87c.95,2.38,1.42,4.98,2.45,7.3s1.9,4.84,3.3,7.09c1.09,1.74,3.92,3.34,4.36,0s-.58-13.59-.58-13.59c2.82,3.76,5.53,7.61,8.31,11.39,.26,.35,.53,.71,.92,.9s.94,.12,1.16-.25c.13-.23,.12-.51,.1-.77-.23-3.02-.72-6.01-1.24-8.99-.35-2.01-.73-4.06-1.7-5.86-1-1.87-2.51-3-4.19-4.19-1.48-1.05-2.99-2.07-4.52-3.05-2.99-1.93-6.04-3.77-9.05-5.66-.84-.53-1.74-1.04-2.51-1.68-2.03-1.67-10.32-6.98-7.34-17.22,.29-1.01,.92-2.09,1.56-2.92,.24-.31,.59-.81,1.04-.8,2.1,.08,3.63,2.09,4.97,3.46,6.26,6.36,14.78,11.5,22.75,15.38,16.38,7.99,36.36,8.53,52.26-.99,1.99-1.19,3.81-2.54,5.43-4.2,0,0,5.43-4.94,0-6.26s-12.72-1.95-12.72-1.95c0,0,12.39-5.53,14.46-9.73,2.69-5.47-1.84-10.56-6.02-13.61-5.01-3.66-10.55-6.52-16.46-8.43-4.73-1.52-9.64-2.45-14.61-2.63-9.79-.34-19.54,1.17-29.02,3.51-.06,.02-.13,.03-.19,.05-6.62,1.66-12.96,4.26-19.57,5.95-.74,.19-1.49,.37-2.24,.54-.63,.14-1.35,.45-1.93,.02-1.46-1.09-1.1-4.81-1.03-6.34,.16-3.45,.22-6.95-.07-10.39,0,0,13.06,4.83,19.92,4.19,3.92-.37,7.87-1.07,11.33-3.04,4.06-2.31,6.71-6.13,9.11-10.03,.18-.29,.35-.58,.52-.87,.13-.23-1.62-1.71-1.83-1.88-.72-.59-1.5-1.1-2.32-1.54-1.74-.93-3.58-1.49-5.51-1.87-8.4-1.66-17.91,.44-24.94,5.31-1.05,.73-2.05,1.55-2.96,2.45-.69,.69-1.3,1.42-2.38,1.15-.79-.2-2.01-.92-2.37-1.69-.12-.26-.11-.51-.02-.75Z"/><g><path d="M21.29,234.84l10.55-11.07,3.29,3.13-14.64,15.36-3.35-3.19-4.29-24.31-9.56,10.04-3.29-3.13,13.88-14.57,3.11,2.96,4.3,24.77Z"/><path d="M20.76,199.89l21.02,20.03-3.55,3.73-21.02-20.03,3.55-3.73Z"/><path d="M30.92,189.23l4.23-4.44,28.24,12.45-3.67,3.85-6.76-3.11-8.01,8.41,3.43,6.6-3.67,3.85-13.8-27.61Zm17.75,6.8l-11.93-5.5,6.07,11.66,5.87-6.16Z"/><path d="M73.97,187.09c-4.91,5.15-11.03,5.41-15.92,.76l-13.56-12.92,3.56-3.73,13.56,12.92c3.02,2.88,6.29,2.77,9.08-.16,2.82-2.96,2.77-6.23-.25-9.11l-13.56-12.92,3.55-3.73,13.56,12.92c4.89,4.65,4.89,10.82-.02,15.97Z"/><path d="M86.31,143.78c2.58,2.45,2.86,5.83,1.45,8.44,2.36-1.88,4.35-1.84,6.8,.1l6.61,5.28-3.58,3.76-5.99-4.86c-1.98-1.6-3.61-1.07-6.18,1.62l-4.2,4.41,7.99,7.62-3.55,3.73-21.02-20.03,8.29-8.7c4.15-4.35,9.39-5.17,13.39-1.36Zm-4.01,11.03c2.4-2.52,2.6-5.04,.52-7.01-2.07-1.98-4.58-1.65-6.98,.86l-4.37,4.59,6.45,6.15,4.37-4.59Z"/><path d="M112.41,116.4c2.58,2.45,2.86,5.83,1.45,8.44,2.36-1.88,4.35-1.84,6.8,.1l6.61,5.28-3.58,3.76-5.99-4.86c-1.98-1.6-3.61-1.07-6.18,1.62l-4.2,4.41,7.99,7.62-3.55,3.73-21.02-20.03,8.29-8.7c4.15-4.35,9.39-5.17,13.39-1.36Zm-4.01,11.03c2.4-2.52,2.6-5.04,.52-7.01-2.07-1.98-4.58-1.65-6.98,.86l-4.37,4.59,6.45,6.15,4.37-4.59Z"/><path d="M115.66,100.3l4.23-4.44,28.24,12.45-3.67,3.85-6.76-3.1-8.01,8.41,3.43,6.6-3.67,3.85-13.8-27.61Zm17.75,6.8l-11.93-5.5,6.07,11.66,5.87-6.16Z"/><path d="M130.08,85.17l3.55-3.73,8.79,8.38,8.38-8.79-8.79-8.38,3.55-3.73,21.02,20.03-3.55,3.73-8.94-8.52-8.38,8.79,8.94,8.52-3.55,3.73-21.02-20.03Z"/><path d="M154.93,59.09l22.11,9.82-10.91-21.58,4.8-5.03,21.02,20.03-3.55,3.73-14.54-13.85,9.46,19.12-3.56,3.73-19.56-8.52,14.54,13.85-3.55,3.73-21.02-20.03,4.77-5Z"/><path d="M180.88,31.85l4.23-4.44,28.24,12.45-3.67,3.85-6.76-3.11-8.01,8.41,3.43,6.6-3.67,3.85-13.8-27.61Zm17.75,6.8l-11.93-5.5,6.07,11.66,5.87-6.16Z"/><path d="M199.05,12.79l24.5,6.06-15.87-15.12,3.55-3.73,21.02,20.03-4.37,4.59-23.92-5.85,15.45,14.73-3.55,3.73-21.02-20.03,4.2-4.41Z"/></g><g><path d="M254.18,39.44l-3.35,3.61-11.26-10.45-5.95,6.41,10.68,9.9-3.29,3.55-10.68-9.9-8.85,9.54-4.1-3.8,21.43-23.11,15.36,14.25Z"/><path d="M246.33,53.71c6.91-7.45,15.43-8.21,22.1-2.02,6.7,6.22,6.55,14.74-.36,22.19-6.85,7.39-15.34,8.18-22.04,1.96-6.67-6.19-6.55-14.74,.3-22.12Zm3.05,18.51c4.3,3.99,9.45,3.13,14.46-2.27,5.04-5.44,5.54-10.67,1.24-14.65-4.26-3.95-9.48-3.1-14.52,2.34-5.01,5.4-5.44,10.63-1.18,14.59Z"/><path d="M269.73,97.81c-5.66-5.25-6.04-11.9-1.06-17.27l13.83-14.91,4.1,3.8-13.83,14.91c-3.08,3.32-2.91,6.86,.31,9.85,3.25,3.02,6.8,2.92,9.88-.4l13.83-14.91,4.1,3.8-13.83,14.91c-4.98,5.37-11.67,5.46-17.33,.21Z"/><path d="M310.52,91.7l-6.22,26.68,16.18-17.44,4.1,3.8-21.43,23.11-5.05-4.68,6-26.05-15.76,16.99-4.1-3.8,21.43-23.11,4.85,4.5Z"/><path d="M337.79,138.54c-6.85,7.39-14.72,7.78-21.95,1.08l-7.81-7.24,21.43-23.11,7.62,7.06c7.36,6.82,7.59,14.79,.71,22.21Zm-18.79-2.72c4.88,4.53,9.67,4.13,14.59-1.18,5.01-5.4,5.02-10.18,.14-14.71l-3.51-3.26-14.73,15.88,3.51,3.26Z"/><path d="M358.21,135.93l4.88,4.53-13.1,30.84-4.23-3.92,3.27-7.38-9.24-8.57-7.11,3.82-4.23-3.92,29.77-15.38Zm-7.12,19.37l5.79-13.03-12.56,6.75,6.77,6.28Z"/><path d="M384.71,167.22l-7-6.49-18.08,19.5-4.1-3.8,18.08-19.5-7.03-6.52,3.35-3.61,18.13,16.82-3.35,3.61Z"/><path d="M395.71,170.71l-21.43,23.11-4.1-3.8,21.43-23.11,4.1,3.8Z"/><path d="M388.67,185.73c6.91-7.45,15.43-8.21,22.1-2.02,6.71,6.22,6.55,14.74-.36,22.19-6.85,7.39-15.34,8.18-22.04,1.96-6.67-6.19-6.55-14.74,.3-22.12Zm3.05,18.51c4.3,3.99,9.45,3.13,14.46-2.27,5.04-5.44,5.54-10.67,1.24-14.65-4.26-3.95-9.48-3.1-14.52,2.34-5.01,5.4-5.44,10.63-1.18,14.59Z"/><path d="M429.72,202.26l-6.22,26.68,16.18-17.44,4.1,3.8-21.43,23.11-5.05-4.68,5.99-26.04-15.76,16.99-4.1-3.8,21.43-23.11,4.85,4.5Z"/></g></svg>