<?xml version="1.0" encoding="UTF-8"?>
<svg xmlns="http://www.w3.org/2000/svg" xmlns:xlink="http://www.w3.org/1999/xlink" width="65px" height="72px" viewBox="0 0 65 72" version="1.1">
<g id="surface1">
<path style=" stroke:none;fill-rule:nonzero;fill:rgb(99.607843%,78.823531%,3.529412%);fill-opacity:1;" d="M 19.242188 71.488281 L 20.042969 60.4375 L 15.304688 59.054688 L 6.085938 56.382812 L 5.6875 49.433594 L 4.84375 34.738281 L 10.089844 34.738281 L 13.539062 50.859375 L 20.640625 52.148438 L 30.390625 53.925781 L 30.730469 63.546875 L 30.988281 71.488281 Z M 19.242188 71.488281 "/>
<path style=" stroke:none;fill-rule:nonzero;fill:rgb(99.607843%,78.823531%,3.529412%);fill-opacity:1;" d="M 45.601562 66.21875 L 34.425781 66.21875 L 34.453125 65.050781 L 45.527344 65.050781 Z M 45.601562 66.21875 "/>
<path style=" stroke:none;fill-rule:nonzero;fill:rgb(99.607843%,78.823531%,3.529412%);fill-opacity:1;" d="M 45.984375 71.488281 L 34.242188 71.488281 L 34.347656 68.132812 L 45.742188 68.132812 Z M 45.984375 71.488281 "/>
<path style=" stroke:none;fill-rule:nonzero;fill:rgb(99.607843%,78.823531%,3.529412%);fill-opacity:1;" d="M 60.382812 34.738281 L 59.542969 49.433594 L 59.140625 56.382812 L 49.941406 59.054688 L 45.1875 60.4375 L 45.386719 63.125 L 34.515625 63.125 L 34.839844 53.925781 L 44.605469 52.148438 L 51.691406 50.859375 L 55.140625 34.738281 Z M 60.382812 34.738281 "/>
<path style=" stroke:none;fill-rule:nonzero;fill:rgb(54.901963%,29.411766%,27.843139%);fill-opacity:1;" d="M 48.378906 40.613281 C 48.378906 34.796875 41.308594 30.082031 32.585938 30.082031 C 23.863281 30.082031 16.789062 34.796875 16.789062 40.613281 C 16.789062 46.433594 23.863281 51.148438 32.585938 51.148438 C 41.308594 51.148438 48.378906 46.433594 48.378906 40.613281 Z M 48.378906 40.613281 "/>
<path style=" stroke:none;fill-rule:nonzero;fill:rgb(100%,100%,100%);fill-opacity:1;" d="M 32.246094 50.707031 C 31.863281 50.707031 31.558594 50.433594 31.402344 50.191406 C 31.234375 49.917969 31.113281 49.644531 31.003906 49.386719 C 30.957031 49.296875 30.929688 49.203125 30.882812 49.097656 C 30.789062 48.886719 30.730469 48.671875 30.667969 48.460938 C 30.621094 48.308594 30.574219 48.15625 30.515625 48.019531 C 30.300781 47.476562 29.886719 47.035156 29.457031 46.609375 C 29.304688 46.441406 29.132812 46.289062 28.964844 46.140625 C 28.644531 45.820312 28.304688 45.5 27.984375 45.152344 C 27.507812 44.621094 27.21875 43.847656 27.1875 43.042969 C 27.171875 42.480469 27.308594 41.964844 27.433594 41.480469 C 27.476562 41.3125 27.507812 41.160156 27.554688 41.007812 C 27.664062 40.523438 27.738281 40.007812 27.753906 39.492188 C 27.769531 39.15625 27.753906 38.808594 27.753906 38.472656 C 27.753906 38.398438 27.753906 38.335938 27.738281 38.261719 L 27.738281 38.199219 C 27.570312 38.261719 27.417969 38.292969 27.261719 38.335938 C 26.804688 38.457031 26.191406 38.59375 25.5625 38.59375 C 25.238281 38.59375 24.933594 38.566406 24.65625 38.488281 C 23.875 38.292969 23.167969 37.804688 22.664062 37.125 C 22.203125 36.515625 21.925781 35.757812 21.835938 34.9375 L 21.773438 34.421875 L 22.296875 34.375 C 22.710938 34.34375 23.230469 34.300781 23.722656 34.300781 C 24.488281 34.300781 25.101562 34.390625 25.667969 34.574219 C 26.3125 34.785156 26.941406 35.148438 27.585938 35.695312 L 27.617188 35.695312 C 27.570312 35.46875 27.523438 35.226562 27.507812 34.984375 C 27.171875 31.460938 29.488281 30.792969 29.59375 30.761719 L 29.917969 30.671875 L 30.132812 30.929688 C 30.972656 31.949219 31.28125 33.085938 30.972656 34.117188 C 30.898438 34.359375 30.789062 34.605469 30.652344 34.847656 C 31.371094 34.527344 32.171875 34.34375 32.953125 34.34375 C 33.273438 34.34375 33.597656 34.375 33.902344 34.4375 C 34.269531 34.511719 34.578125 34.617188 34.855469 34.753906 C 35.007812 34.832031 35.144531 34.9375 35.28125 35.027344 C 35.511719 35.226562 35.910156 35.542969 35.667969 35.953125 C 35.636719 36 35.621094 36.046875 35.589844 36.089844 C 35.238281 36.667969 34.792969 37.320312 34.070312 37.714844 C 33.949219 37.792969 33.828125 37.835938 33.703125 37.898438 C 34.808594 37.683594 35.804688 37.5625 36.769531 37.5625 C 36.910156 37.5625 37.046875 37.5625 37.183594 37.5625 C 37.9375 37.59375 38.703125 37.730469 39.46875 37.972656 C 40.375 38.261719 41.234375 38.703125 42.03125 39.261719 C 43.117188 40.050781 43.503906 40.992188 43.074219 41.859375 C 42.917969 42.175781 42.535156 42.480469 42.105469 42.753906 C 42.230469 42.785156 42.351562 42.800781 42.476562 42.832031 C 42.996094 42.953125 43.148438 43.269531 43.195312 43.453125 C 43.332031 43.96875 42.875 44.453125 42.703125 44.589844 C 42.460938 44.832031 42.167969 45.0625 41.816406 45.273438 C 40.605469 45.988281 39.179688 46.367188 37.707031 46.367188 C 36.339844 46.367188 34.945312 46.046875 33.671875 45.441406 C 32.199219 44.726562 31.035156 43.9375 30.207031 43.101562 C 30.175781 43.074219 30.144531 43.042969 30.117188 42.996094 C 30.085938 42.96875 30.039062 42.90625 29.976562 42.859375 C 29.976562 42.890625 29.960938 42.90625 29.945312 42.921875 C 29.6875 43.832031 30.175781 44.363281 30.757812 44.804688 C 30.804688 44.832031 30.835938 44.863281 30.867188 44.878906 C 30.929688 44.925781 31.019531 44.984375 31.097656 45.03125 L 31.171875 45.078125 C 31.34375 45.183594 31.511719 45.289062 31.679688 45.394531 C 31.957031 45.5625 32.230469 45.730469 32.507812 45.910156 C 32.753906 46.0625 32.96875 46.214844 33.183594 46.367188 C 33.414062 46.535156 33.734375 46.761719 33.949219 47.140625 C 34.132812 47.476562 34.195312 47.855469 34.253906 48.140625 C 34.332031 48.550781 34.410156 49.023438 34.441406 49.492188 C 34.441406 49.554688 34.453125 49.722656 34.363281 49.902344 C 34.253906 50.085938 34.054688 50.207031 33.828125 50.207031 C 33.734375 50.207031 33.628906 50.191406 33.535156 50.144531 C 33.367188 50.070312 33.257812 49.933594 33.214844 49.859375 C 33.152344 49.765625 33.074219 49.675781 33.015625 49.585938 C 33.015625 49.722656 33.015625 49.84375 33 49.933594 C 32.921875 50.464844 32.554688 50.664062 32.261719 50.664062 Z M 29.792969 37.820312 C 29.792969 38.125 29.792969 38.398438 29.777344 38.640625 L 29.777344 38.71875 C 29.777344 38.71875 29.777344 38.898438 29.777344 39.003906 L 29.917969 38.976562 C 30.375 38.851562 30.820312 38.71875 31.296875 38.566406 C 31.664062 38.445312 32.046875 38.324219 32.429688 38.214844 C 32.371094 38.214844 32.308594 38.214844 32.246094 38.230469 C 32.171875 38.230469 32.09375 38.230469 32 38.230469 C 31.328125 38.230469 30.4375 38.003906 29.824219 37.820312 Z M 29.792969 37.820312 "/>
<path style=" stroke:none;fill-rule:nonzero;fill:rgb(1.176471%,60.784316%,31.37255%);fill-opacity:1;" d="M 29.042969 35.878906 C 29.089844 35.757812 29.273438 35.652344 29.347656 35.589844 C 29.871094 35.179688 30.316406 34.617188 30.5 33.980469 C 30.789062 32.996094 30.390625 32.023438 29.746094 31.25 C 29.746094 31.25 27.738281 31.796875 28.046875 34.9375 C 28.089844 35.347656 28.183594 35.789062 28.277344 36.199219 C 28.320312 36.410156 28.382812 36.621094 28.445312 36.835938 C 28.476562 36.941406 28.503906 37.046875 28.535156 37.136719 C 28.550781 37.199219 28.628906 37.320312 28.582031 37.394531 C 28.566406 37.394531 28.550781 37.367188 28.535156 37.351562 C 28.167969 36.878906 27.753906 36.457031 27.292969 36.074219 C 26.773438 35.636719 26.191406 35.257812 25.546875 35.042969 C 24.535156 34.710938 23.429688 34.785156 22.355469 34.863281 C 22.433594 35.558594 22.679688 36.242188 23.09375 36.804688 C 23.507812 37.367188 24.121094 37.804688 24.808594 37.972656 C 25.578125 38.171875 26.390625 38.019531 27.171875 37.820312 C 27.539062 37.730469 27.90625 37.609375 28.230469 37.410156 C 28.214844 37.578125 28.246094 37.714844 28.261719 37.882812 C 28.261719 38.0625 28.289062 38.246094 28.304688 38.414062 C 28.320312 38.777344 28.335938 39.125 28.304688 39.492188 C 28.277344 40.039062 28.214844 40.570312 28.089844 41.101562 C 27.953125 41.738281 27.722656 42.34375 27.738281 43.011719 C 27.753906 43.648438 27.96875 44.316406 28.398438 44.804688 C 28.859375 45.320312 29.363281 45.773438 29.839844 46.246094 C 30.316406 46.714844 30.746094 47.203125 31.003906 47.824219 C 31.144531 48.171875 31.21875 48.550781 31.359375 48.886719 C 31.496094 49.21875 31.632812 49.585938 31.847656 49.917969 C 32 50.175781 32.414062 50.402344 32.492188 49.917969 C 32.570312 49.433594 32.398438 47.945312 32.398438 47.945312 C 32.8125 48.492188 33.214844 49.054688 33.613281 49.601562 C 33.640625 49.644531 33.6875 49.707031 33.75 49.734375 C 33.8125 49.765625 33.886719 49.75 33.917969 49.707031 C 33.933594 49.675781 33.933594 49.628906 33.917969 49.601562 C 33.886719 49.160156 33.8125 48.734375 33.734375 48.292969 C 33.6875 48.007812 33.628906 47.703125 33.488281 47.445312 C 33.335938 47.171875 33.121094 47.003906 32.875 46.835938 C 32.660156 46.683594 32.429688 46.535156 32.214844 46.398438 C 31.773438 46.125 31.328125 45.851562 30.898438 45.578125 C 30.773438 45.5 30.636719 45.425781 30.53125 45.335938 C 30.238281 45.089844 29.011719 44.316406 29.457031 42.84375 C 29.503906 42.695312 29.59375 42.542969 29.6875 42.421875 C 29.71875 42.375 29.777344 42.300781 29.839844 42.300781 C 30.144531 42.300781 30.375 42.601562 30.574219 42.800781 C 31.496094 43.726562 32.738281 44.46875 33.902344 45.03125 C 36.296875 46.183594 39.222656 46.277344 41.554688 44.894531 C 41.847656 44.726562 42.105469 44.53125 42.351562 44.289062 C 42.351562 44.289062 43.148438 43.574219 42.351562 43.375 C 41.554688 43.179688 40.480469 43.089844 40.480469 43.089844 C 40.480469 43.089844 42.289062 42.285156 42.597656 41.675781 C 42.996094 40.886719 42.320312 40.144531 41.707031 39.703125 C 40.972656 39.171875 40.160156 38.761719 39.300781 38.472656 C 38.609375 38.246094 37.890625 38.125 37.152344 38.09375 C 35.710938 38.050781 34.285156 38.261719 32.90625 38.609375 L 32.875 38.609375 C 31.910156 38.851562 30.972656 39.234375 30.007812 39.476562 C 29.902344 39.507812 29.792969 39.535156 29.6875 39.550781 C 29.59375 39.566406 29.488281 39.613281 29.410156 39.550781 C 29.195312 39.398438 29.242188 38.851562 29.257812 38.625 C 29.289062 38.125 29.289062 37.625 29.257812 37.125 C 29.257812 37.125 31.171875 37.820312 32.171875 37.730469 C 32.738281 37.667969 33.320312 37.578125 33.828125 37.289062 C 34.425781 36.957031 34.808594 36.394531 35.160156 35.832031 C 35.191406 35.789062 35.207031 35.742188 35.238281 35.710938 C 35.253906 35.679688 35.007812 35.46875 34.976562 35.4375 C 34.867188 35.347656 34.761719 35.269531 34.640625 35.210938 C 34.378906 35.074219 34.117188 35 33.828125 34.9375 C 32.601562 34.695312 31.203125 35 30.175781 35.710938 C 30.023438 35.816406 29.871094 35.9375 29.746094 36.0625 C 29.640625 36.167969 29.5625 36.273438 29.394531 36.226562 C 29.273438 36.199219 29.105469 36.089844 29.042969 35.984375 C 29.027344 35.953125 29.027344 35.910156 29.042969 35.878906 Z M 29.042969 35.878906 "/>
<path style=" stroke:none;fill-rule:nonzero;fill:rgb(0%,0%,0%);fill-opacity:1;" d="M 3.113281 34.558594 L 4.660156 32.949219 L 5.136719 33.40625 L 2.988281 35.636719 L 2.5 35.179688 L 1.871094 31.660156 L 0.476562 33.117188 L 0 32.660156 L 2.039062 30.550781 L 2.5 30.976562 L 3.128906 34.574219 Z M 3.113281 34.558594 "/>
<path style=" stroke:none;fill-rule:nonzero;fill:rgb(0%,0%,0%);fill-opacity:1;" d="M 3.035156 29.488281 L 6.117188 32.386719 L 5.597656 32.933594 L 2.515625 30.035156 Z M 3.035156 29.488281 "/>
<path style=" stroke:none;fill-rule:nonzero;fill:rgb(0%,0%,0%);fill-opacity:1;" d="M 4.523438 27.957031 L 5.136719 27.316406 L 9.277344 29.125 L 8.742188 29.6875 L 7.742188 29.230469 L 6.5625 30.445312 L 7.070312 31.402344 L 6.53125 31.960938 L 4.507812 27.957031 Z M 7.128906 28.941406 L 5.382812 28.136719 L 6.273438 29.824219 L 7.128906 28.925781 Z M 7.128906 28.941406 "/>
<path style=" stroke:none;fill-rule:nonzero;fill:rgb(0%,0%,0%);fill-opacity:1;" d="M 10.839844 27.636719 C 10.121094 28.378906 9.230469 28.425781 8.511719 27.742188 L 6.515625 25.875 L 7.039062 25.328125 L 9.03125 27.195312 C 9.476562 27.605469 9.953125 27.589844 10.367188 27.167969 C 10.78125 26.742188 10.765625 26.269531 10.335938 25.847656 L 8.339844 23.980469 L 8.863281 23.433594 L 10.855469 25.300781 C 11.578125 25.96875 11.578125 26.863281 10.855469 27.621094 Z M 10.839844 27.636719 "/>
<path style=" stroke:none;fill-rule:nonzero;fill:rgb(0%,0%,0%);fill-opacity:1;" d="M 12.636719 21.351562 C 13.019531 21.703125 13.050781 22.203125 12.851562 22.582031 C 13.203125 22.308594 13.492188 22.308594 13.847656 22.582031 L 14.8125 23.339844 L 14.292969 23.886719 L 13.417969 23.191406 C 13.125 22.960938 12.878906 23.039062 12.511719 23.433594 L 11.898438 24.070312 L 13.0625 25.179688 L 12.542969 25.722656 L 9.460938 22.824219 L 10.671875 21.566406 C 11.285156 20.929688 12.050781 20.820312 12.636719 21.367188 Z M 12.050781 22.945312 C 12.40625 22.582031 12.4375 22.21875 12.128906 21.929688 C 11.824219 21.640625 11.453125 21.6875 11.101562 22.050781 L 10.457031 22.71875 L 11.410156 23.613281 Z M 12.050781 22.945312 "/>
<path style=" stroke:none;fill-rule:nonzero;fill:rgb(0%,0%,0%);fill-opacity:1;" d="M 16.46875 17.390625 C 16.851562 17.742188 16.882812 18.242188 16.683594 18.621094 C 17.035156 18.347656 17.328125 18.347656 17.679688 18.621094 L 18.644531 19.378906 L 18.125 19.925781 L 17.25 19.226562 C 16.960938 19 16.714844 19.078125 16.347656 19.472656 L 15.734375 20.109375 L 16.898438 21.214844 L 16.375 21.761719 L 13.292969 18.863281 L 14.503906 17.605469 C 15.117188 16.964844 15.886719 16.859375 16.46875 17.40625 Z M 15.886719 18.984375 C 16.238281 18.621094 16.269531 18.257812 15.960938 17.96875 C 15.65625 17.679688 15.289062 17.726562 14.933594 18.089844 L 14.292969 18.757812 L 15.242188 19.652344 Z M 15.886719 18.984375 "/>
<path style=" stroke:none;fill-rule:nonzero;fill:rgb(0%,0%,0%);fill-opacity:1;" d="M 16.945312 15.054688 L 17.558594 14.417969 L 21.699219 16.222656 L 21.160156 16.785156 L 20.164062 16.328125 L 18.984375 17.542969 L 19.488281 18.5 L 18.953125 19.0625 L 16.929688 15.054688 Z M 19.550781 16.039062 L 17.800781 15.234375 L 18.691406 16.921875 L 19.550781 16.027344 Z M 19.550781 16.039062 "/>
<path style=" stroke:none;fill-rule:nonzero;fill:rgb(0%,0%,0%);fill-opacity:1;" d="M 19.058594 12.867188 L 19.582031 12.320312 L 20.871094 13.535156 L 22.097656 12.261719 L 20.808594 11.046875 L 21.328125 10.5 L 24.410156 13.398438 L 23.890625 13.945312 L 22.585938 12.714844 L 21.359375 13.992188 L 22.664062 15.222656 L 22.140625 15.765625 Z M 19.058594 12.867188 "/>
<path style=" stroke:none;fill-rule:nonzero;fill:rgb(0%,0%,0%);fill-opacity:1;" d="M 22.695312 9.074219 L 25.929688 10.5 L 24.335938 7.375 L 25.039062 6.644531 L 28.121094 9.542969 L 27.601562 10.089844 L 25.46875 8.085938 L 26.847656 10.863281 L 26.328125 11.410156 L 23.460938 10.183594 L 25.59375 12.183594 L 25.070312 12.730469 L 21.988281 9.832031 L 22.695312 9.105469 Z M 22.695312 9.074219 "/>
<path style=" stroke:none;fill-rule:nonzero;fill:rgb(0%,0%,0%);fill-opacity:1;" d="M 26.496094 5.128906 L 27.109375 4.488281 L 31.25 6.296875 L 30.714844 6.859375 L 29.71875 6.402344 L 28.535156 7.617188 L 29.042969 8.574219 L 28.503906 9.132812 L 26.480469 5.128906 Z M 29.105469 6.113281 L 27.355469 5.308594 L 28.246094 6.996094 L 29.105469 6.097656 Z M 29.105469 6.113281 "/>
<path style=" stroke:none;fill-rule:nonzero;fill:rgb(0%,0%,0%);fill-opacity:1;" d="M 29.148438 2.363281 L 32.738281 3.246094 L 30.40625 1.058594 L 30.929688 0.511719 L 34.011719 3.414062 L 33.367188 4.082031 L 29.871094 3.230469 L 32.140625 5.371094 L 31.617188 5.917969 L 28.535156 3.019531 L 29.148438 2.378906 Z M 29.148438 2.363281 "/>
<path style=" stroke:none;fill-rule:nonzero;fill:rgb(0%,0%,0%);fill-opacity:1;" d="M 37.230469 6.234375 L 36.738281 6.765625 L 35.082031 5.25 L 34.210938 6.175781 L 35.773438 7.617188 L 35.296875 8.132812 L 33.734375 6.691406 L 32.445312 8.070312 L 31.847656 7.527344 L 34.992188 4.171875 L 37.246094 6.234375 Z M 37.230469 6.234375 "/>
<path style=" stroke:none;fill-rule:nonzero;fill:rgb(0%,0%,0%);fill-opacity:1;" d="M 36.082031 8.300781 C 37.09375 7.222656 38.335938 7.117188 39.316406 8.011719 C 40.296875 8.90625 40.28125 10.152344 39.269531 11.230469 C 38.273438 12.308594 37.03125 12.414062 36.035156 11.515625 C 35.054688 10.621094 35.070312 9.378906 36.082031 8.316406 Z M 36.523438 10.984375 C 37.152344 11.5625 37.90625 11.441406 38.640625 10.652344 C 39.378906 9.863281 39.453125 9.105469 38.824219 8.527344 C 38.195312 7.949219 37.429688 8.070312 36.695312 8.863281 C 35.957031 9.652344 35.894531 10.410156 36.523438 10.972656 Z M 36.523438 10.984375 "/>
<path style=" stroke:none;fill-rule:nonzero;fill:rgb(0%,0%,0%);fill-opacity:1;" d="M 39.5 14.691406 C 38.671875 13.929688 38.609375 12.960938 39.347656 12.183594 L 41.371094 10.03125 L 41.96875 10.578125 L 39.945312 12.730469 C 39.5 13.21875 39.515625 13.734375 39.992188 14.160156 C 40.464844 14.597656 40.988281 14.582031 41.433594 14.097656 L 43.457031 11.941406 L 44.054688 12.488281 L 42.03125 14.644531 C 41.292969 15.417969 40.328125 15.433594 39.484375 14.675781 Z M 39.5 14.691406 "/>
<path style=" stroke:none;fill-rule:nonzero;fill:rgb(0%,0%,0%);fill-opacity:1;" d="M 45.480469 13.808594 L 44.574219 17.679688 L 46.953125 15.144531 L 47.550781 15.691406 L 44.40625 19.046875 L 43.671875 18.363281 L 44.542969 14.582031 L 42.230469 17.042969 L 41.632812 16.496094 L 44.773438 13.140625 L 45.480469 13.792969 Z M 45.480469 13.808594 "/>
<path style=" stroke:none;fill-rule:nonzero;fill:rgb(0%,0%,0%);fill-opacity:1;" d="M 49.480469 20.59375 C 48.484375 21.671875 47.320312 21.71875 46.261719 20.746094 L 45.113281 19.699219 L 48.253906 16.34375 L 49.375 17.359375 C 50.449219 18.347656 50.496094 19.5 49.480469 20.578125 Z M 46.722656 20.199219 C 47.441406 20.851562 48.132812 20.792969 48.851562 20.03125 C 49.589844 19.242188 49.589844 18.558594 48.867188 17.90625 L 48.347656 17.4375 L 46.183594 19.742188 L 46.707031 20.214844 Z M 46.722656 20.199219 "/>
<path style=" stroke:none;fill-rule:nonzero;fill:rgb(0%,0%,0%);fill-opacity:1;" d="M 52.472656 20.214844 L 53.191406 20.867188 L 51.277344 25.34375 L 50.664062 24.785156 L 51.136719 23.722656 L 49.789062 22.476562 L 48.746094 23.023438 L 48.132812 22.460938 L 52.488281 20.230469 Z M 51.429688 23.023438 L 52.273438 21.125 L 50.433594 22.113281 Z M 51.429688 23.023438 "/>
<path style=" stroke:none;fill-rule:nonzero;fill:rgb(0%,0%,0%);fill-opacity:1;" d="M 56.351562 24.753906 L 55.324219 23.8125 L 52.671875 26.636719 L 52.074219 26.089844 L 54.726562 23.265625 L 53.699219 22.324219 L 54.191406 21.792969 L 56.84375 24.238281 L 56.351562 24.769531 Z M 56.351562 24.753906 "/>
<path style=" stroke:none;fill-rule:nonzero;fill:rgb(0%,0%,0%);fill-opacity:1;" d="M 57.960938 25.269531 L 54.816406 28.625 L 54.21875 28.078125 L 57.363281 24.722656 Z M 57.960938 25.269531 "/>
<path style=" stroke:none;fill-rule:nonzero;fill:rgb(0%,0%,0%);fill-opacity:1;" d="M 56.933594 27.441406 C 57.945312 26.363281 59.1875 26.253906 60.167969 27.152344 C 61.152344 28.046875 61.136719 29.292969 60.125 30.367188 C 59.128906 31.445312 57.886719 31.554688 56.886719 30.65625 C 55.90625 29.761719 55.921875 28.515625 56.933594 27.453125 Z M 57.378906 30.125 C 58.007812 30.703125 58.757812 30.582031 59.496094 29.792969 C 60.230469 29.003906 60.308594 28.242188 59.679688 27.667969 C 59.050781 27.089844 58.285156 27.210938 57.546875 28 C 56.8125 28.789062 56.75 29.550781 57.378906 30.109375 Z M 57.378906 30.125 "/>
<path style=" stroke:none;fill-rule:nonzero;fill:rgb(0%,0%,0%);fill-opacity:1;" d="M 62.945312 29.835938 L 62.039062 33.707031 L 64.417969 31.171875 L 65.015625 31.71875 L 61.871094 35.074219 L 61.136719 34.390625 L 62.011719 30.613281 L 59.695312 33.070312 L 59.097656 32.523438 L 62.238281 29.167969 L 62.945312 29.824219 Z M 62.945312 29.835938 "/>
</g>
</svg>
